<svg width="19" height="16" viewBox="0 0 19 16" fill="none" xmlns="http://www.w3.org/2000/svg">
<path d="M19 5.16789C19 11.0026 10.1964 15.7254 9.82147 15.9204C9.72266 15.9727 9.6122 16 9.5 16C9.38779 16 9.27734 15.9727 9.17853 15.9204C8.89437 15.7704 3.78812 13.0289 1.31728 9.178C1.2854 9.12756 1.26782 9.06966 1.26633 9.01031C1.26485 8.95095 1.27952 8.89228 1.30884 8.84037C1.33815 8.78845 1.38104 8.74516 1.43308 8.71498C1.48511 8.68481 1.5444 8.66883 1.60482 8.66871H4.75C4.86174 8.66878 4.97178 8.64173 5.07033 8.58997C5.16888 8.5382 5.25289 8.46332 5.31491 8.37197L6.10714 7.20503L8.25652 10.3724C8.33887 10.4938 8.45946 10.5853 8.5998 10.6329C8.74014 10.6805 8.89249 10.6815 9.03348 10.6358C9.18305 10.5861 9.31103 10.4879 9.39652 10.3574L10.5416 8.66871H12.2143C12.3073 8.66891 12.3994 8.65031 12.4848 8.61408C12.5702 8.57784 12.6471 8.52473 12.7107 8.45805C12.7744 8.39137 12.8234 8.31255 12.8547 8.22648C12.886 8.14041 12.899 8.04892 12.8929 7.95771C12.8777 7.78631 12.7971 7.62689 12.6673 7.51141C12.5376 7.39594 12.3681 7.33294 12.1931 7.33506H10.1786C10.0668 7.33499 9.95679 7.36204 9.85824 7.41381C9.75969 7.46557 9.67568 7.54045 9.61366 7.6318L8.82143 8.79874L6.67205 5.63133C6.58965 5.50978 6.46892 5.41817 6.3284 5.37059C6.18788 5.323 6.03535 5.32207 5.89424 5.36793C5.74505 5.41799 5.61742 5.51609 5.53205 5.64633L4.38696 7.33506H0.638705C0.566194 7.33526 0.495524 7.31262 0.43706 7.27047C0.378596 7.22832 0.335411 7.16887 0.313839 7.10084C0.109271 6.47608 0.00342725 5.82418 0 5.16789C0.00157152 3.79775 0.55614 2.48418 1.54204 1.51534C2.52794 0.546512 3.86466 0.00154431 5.25893 0C7.01049 0 8.54406 0.740174 9.5 1.9913C10.4559 0.740174 11.9895 0 13.7411 0C15.1353 0.00154431 16.4721 0.546512 17.458 1.51534C18.4439 2.48418 18.9984 3.79775 19 5.16789Z" fill="black"/>
</svg>
